# xmcd
#
# Track frame offsets:
#	150
#	21446
#	42714
#	62155
#	77310
#	101038
#	131489
#	150987
#	168170
#	181712
#
# Disc length: 2718 seconds
#
# Revision: 3
# Processed by: cddbd v1.5PL3 Copyright (c) Steve Scherf et al.
# Submitted via: audiograbber 1.82.02
#
DISCID=740a9c0a
DTITLE=Tony D - The Jook Joint
DYEAR=2004
DGENRE=Blues
TTITLE0=Screaming and Crying
TTITLE1=Baby Please Don't Go
TTITLE2=My Baby's So Far
TTITLE3=Asstango
TTITLE4=If 6 Was 9
TTITLE5=Fat City Blues
TTITLE6=I Wanna Shout
TTITLE7=Blues Party
TTITLE8=You're So Fine
TTITLE9=Turn Out The Lights
EXTD=
EXTT0=
EXTT1=
EXTT2=
EXTT3=
EXTT4=
EXTT5=
EXTT6=
EXTT7=
EXTT8=
EXTT9=
PLAYORDER=
